<svg width="50" height="36" viewBox="0 0 50 36" fill="none" xmlns="http://www.w3.org/2000/svg">
<path d="M35.2574 18.8677C34.5742 19.0243 32.7761 19.1144 32.7761 19.1144L32.5484 19.8261C32.5484 19.8261 33.4451 19.7501 34.0998 19.8166C34.0998 19.8166 34.3133 19.7928 34.337 20.0585C34.3414 20.2296 34.335 20.4007 34.318 20.5709C34.318 20.5709 34.3038 20.7322 34.0761 20.7702C33.8294 20.8129 32.1404 20.8745 32.1404 20.8745L31.8652 21.7997C31.8652 21.7997 31.7656 22.0132 31.9933 21.9515C32.2068 21.8946 33.9764 21.5625 34.2089 21.6099C34.4556 21.6716 34.7308 21.999 34.6501 22.3026C34.5553 22.6726 32.7904 23.8018 31.7134 23.7211C31.7134 23.7211 31.1488 23.7591 30.6696 22.9953C30.2237 22.2694 30.8404 20.8888 30.8404 20.8888C30.8404 20.8888 30.5605 20.2436 30.7645 20.0301C30.7645 20.0301 30.8879 19.9209 31.239 19.8925L31.6707 18.9958C31.6707 18.9958 31.1773 19.029 30.8831 18.6684C30.608 18.3221 30.589 18.1655 30.7977 18.0707C31.0207 17.9615 33.075 17.5867 34.4888 17.6342C34.4888 17.6342 34.9822 17.5867 35.4045 18.4407C35.3997 18.4407 35.6085 18.787 35.2574 18.8677ZM29.939 22.3121C29.7587 22.7391 29.2796 23.1945 28.6865 22.9099C28.0935 22.6252 27.1636 20.7132 27.1636 20.7132C27.1636 20.7132 26.8078 20.0016 26.7413 20.0158C26.7413 20.0158 26.6654 19.8782 26.618 20.6563C26.5706 21.4344 26.6275 22.9478 26.3191 23.185C26.025 23.4223 25.6691 23.3274 25.4841 23.0475C25.3181 22.7723 25.2469 22.1176 25.337 20.9694C25.4461 19.8213 25.7118 18.5973 26.0534 18.213C26.395 17.8287 26.6702 18.1086 26.7746 18.2082C26.7746 18.2082 27.23 18.621 27.9844 19.8355L28.1172 20.0585C28.1172 20.0585 28.8004 21.2067 28.8716 21.2019C28.8716 21.2019 28.9285 21.2541 28.9759 21.2161C29.0471 21.1972 29.0186 20.8271 29.0186 20.8271C29.0186 20.8271 28.8763 19.5793 28.2548 17.4634C28.2548 17.4634 28.1599 17.1977 28.2263 16.951C28.2927 16.7043 28.5394 16.8182 28.5394 16.8182C28.5394 16.8182 29.5073 17.3021 29.9722 18.8772C30.4324 20.4665 30.1193 21.8851 29.939 22.3121ZM25.1852 18.2652C25.1046 18.4265 25.0571 18.6589 24.6491 18.7206C24.6491 18.7206 20.7445 18.9863 20.5595 19.2615C20.5595 19.2615 20.4219 19.4228 20.6354 19.4702C20.8489 19.5177 21.7313 19.6315 22.1583 19.6553C22.6138 19.66 24.1509 19.6742 24.7013 20.3622C24.7013 20.3622 25.0286 20.6895 25.0144 21.4296C25.0002 22.1887 24.8673 22.4544 24.5732 22.7296C24.2648 22.9858 21.6175 24.1719 19.9095 22.35C19.9095 22.35 19.122 21.4723 20.1799 20.8081C20.1799 20.8081 20.9438 20.3479 22.8842 20.8888C22.8842 20.8888 23.4725 21.1023 23.444 21.3158C23.4108 21.5435 22.9601 21.7855 22.3054 21.7712C21.6697 21.7522 21.2047 21.4486 21.2949 21.4961C21.3803 21.5293 20.6117 21.126 20.3745 21.4012C20.1372 21.6526 20.1942 21.8092 20.4267 21.9657C21.0197 22.3026 23.3112 22.184 23.9944 21.4249C23.9944 21.4249 24.2648 21.1165 23.8521 20.8651C23.4393 20.6278 22.258 20.4855 21.7978 20.4618C21.3565 20.4381 19.715 20.4665 19.4778 20.0301C19.4778 20.0301 19.2406 19.7359 19.5015 18.9009C19.7767 18.028 21.6886 17.6911 22.5142 17.6152C22.5142 17.6152 24.7867 17.5345 25.2042 17.9995C25.2324 18.0872 25.2256 18.1824 25.1852 18.2652ZM18.7329 23.3843C18.4578 23.5883 17.8742 23.4982 17.7082 23.2704C17.5421 23.0664 17.4852 22.2551 17.5184 20.9837C17.5516 19.698 17.5801 18.1039 17.8552 17.8524C18.1494 17.5962 18.3297 17.8192 18.4435 17.9947C18.5669 18.1655 18.714 18.3553 18.7472 18.7586C18.7804 19.1618 18.8705 21.2778 18.8705 21.2778C18.8705 21.2778 18.9939 23.185 18.7329 23.3843ZM19.326 16.562C18.5242 16.8276 17.9738 16.7375 17.5089 16.5382C17.3049 16.8941 17.1863 17.0032 17.0297 17.0269C16.802 17.0506 16.598 16.6853 16.56 16.5667C16.5221 16.4766 16.413 16.3247 16.5458 15.9642C16.0903 15.5562 16.0571 15.0058 16.133 14.6358C16.2469 14.2088 17.0155 12.5862 19.3544 12.3964C19.3544 12.3964 20.4978 12.311 20.6923 12.9231H20.7255C20.7255 12.9231 21.8357 12.9278 21.812 13.9146C21.7978 14.9062 20.5785 16.1397 19.326 16.562ZM17.1436 14.3653C16.9064 14.7449 16.8969 14.9726 17.006 15.1292C17.2764 14.7164 17.7698 14.0664 18.4957 13.573C17.9359 13.6205 17.4662 13.8624 17.1436 14.3653ZM20.3745 13.7296C19.6391 13.8387 18.5005 14.8255 17.9596 15.6321C18.7899 15.7839 20.2559 15.727 20.9058 14.4033C20.9011 14.4033 21.2142 13.5825 20.3745 13.7296ZM40.3386 21.3727C39.8974 22.1413 38.6591 23.7449 37.0081 23.3701C36.4625 24.6937 36.007 26.0269 35.7461 28.029C35.7461 28.029 35.6891 28.418 35.3665 28.2804C35.0487 28.1666 34.5173 27.6352 34.4129 26.8998C34.2991 25.932 34.7308 24.2952 35.6085 22.4212C35.3523 22.0037 35.1768 21.4059 35.3286 20.5567C35.3286 20.5567 35.5516 18.9816 37.1314 17.5583C37.1314 17.5583 37.3212 17.3922 37.4303 17.4444C37.5537 17.4966 37.4967 18.009 37.3971 18.2557C37.2975 18.5024 36.5906 19.7264 36.5906 19.7264C36.5906 19.7264 36.1493 20.5519 36.2727 21.2019C37.103 19.9257 38.9912 17.3495 40.163 18.1608C40.5568 18.4407 40.7371 19.0527 40.7371 19.7122C40.7324 20.2957 40.5948 20.9125 40.3386 21.3727ZM39.997 19.3516C39.997 19.3516 39.9306 18.844 39.4372 19.4038C39.0102 19.8735 38.2416 20.7607 37.6201 21.961C38.2701 21.8898 38.8963 21.534 39.0861 21.3537C39.3945 21.0786 40.1109 20.3384 39.997 19.3516ZM16.9633 19.9969C16.8732 21.145 16.4319 23.0759 13.3054 24.0295C11.2416 24.651 9.29172 24.3521 8.22899 24.0817C8.20527 24.504 8.15783 24.6842 8.09141 24.7554C8.00126 24.8456 7.32757 25.2346 6.95751 24.6842C6.79146 24.4233 6.70606 23.9489 6.65862 23.5266C4.26748 22.4259 3.1668 20.8413 3.1241 20.7702C3.07191 20.718 2.52631 20.1487 3.07191 19.4513C3.5843 18.8203 5.25904 18.1893 6.76774 17.9331C6.81993 16.6426 6.97175 15.67 7.15203 15.2241C7.37027 14.7069 7.64544 15.1719 7.88266 15.523C8.08192 15.7839 8.20053 16.9083 8.21001 17.805C9.19683 17.7575 9.78039 17.8287 10.8811 18.028C12.3139 18.2889 13.2722 19.0195 13.1868 19.8498C13.1251 20.6658 12.3755 21.0026 12.0909 21.0264C11.792 21.0501 11.327 20.8366 11.327 20.8366C11.0092 20.6848 11.3033 20.5519 11.6876 20.3859C12.1051 20.1819 12.0102 19.9731 12.0102 19.9731C11.8537 19.5177 9.99388 19.1998 8.14359 19.1998C8.13411 20.2198 8.18629 21.9136 8.21001 22.9004C9.50522 23.1471 10.4731 23.0996 10.4731 23.0996C10.4731 23.0996 15.1984 22.9668 15.3407 19.9494C15.4831 16.932 10.6296 14.0285 7.03817 13.1081C3.45146 12.1687 1.42089 12.8234 1.24535 12.9136C1.05557 13.0085 1.23111 13.0369 1.23111 13.0369C1.4118 13.0699 1.5895 13.1175 1.76248 13.1793C2.1183 13.2931 1.84313 13.4781 1.84313 13.4781C1.23111 13.6727 0.543185 13.5493 0.410344 13.2694C0.277503 12.9895 0.500486 12.738 0.75668 12.3775C1.01287 11.9979 1.29279 12.0121 1.29279 12.0121C5.72873 10.475 11.1325 13.2552 11.1325 13.2552C16.1947 15.8218 17.0582 18.8297 16.9633 19.9969ZM3.57481 19.8403C3.07191 20.087 3.41825 20.4428 3.41825 20.4428C4.36237 21.4581 5.52473 22.0938 6.63015 22.4876C6.75825 20.737 6.73927 20.1202 6.75351 19.2378C5.02657 19.3564 4.03026 19.6315 3.57481 19.8403ZM49.7323 19.4797V20.106C49.7326 20.1384 49.7264 20.1706 49.7141 20.2007C49.7018 20.2307 49.6836 20.258 49.6607 20.281C49.6377 20.3039 49.6104 20.3221 49.5804 20.3344C49.5503 20.3467 49.5181 20.3529 49.4856 20.3527H46.5015C46.5015 20.5092 46.5062 20.6468 46.5062 20.7749C46.5104 21.6196 46.4677 22.4638 46.3781 23.3036C46.3724 23.3641 46.3445 23.4203 46.2998 23.4615C46.2552 23.5026 46.1969 23.5258 46.1362 23.5266H45.4909C45.4587 23.5267 45.4269 23.5199 45.3975 23.5068C45.368 23.4938 45.3417 23.4746 45.3201 23.4507C45.2981 23.4266 45.2817 23.398 45.2718 23.3668C45.262 23.3357 45.2591 23.3028 45.2632 23.2704C45.354 22.4417 45.3984 21.6086 45.396 20.7749C45.396 20.6421 45.396 20.5045 45.3913 20.3527H42.4403C42.4079 20.3529 42.3757 20.3467 42.3456 20.3344C42.3156 20.3221 42.2883 20.3039 42.2653 20.281C42.2424 20.258 42.2242 20.2307 42.2119 20.2007C42.1996 20.1706 42.1934 20.1384 42.1936 20.106V19.4797C42.1934 19.4472 42.1996 19.4151 42.2119 19.385C42.2242 19.355 42.2424 19.3277 42.2653 19.3047C42.2883 19.2817 42.3156 19.2636 42.3456 19.2513C42.3757 19.239 42.4079 19.2328 42.4403 19.233H45.3486C45.2898 18.2259 45.1614 17.224 44.9643 16.2346C44.9592 16.2047 44.9603 16.1741 44.9677 16.1447C44.975 16.1153 44.9884 16.0877 45.007 16.0638C45.0257 16.0402 45.0495 16.0211 45.0766 16.008C45.1037 15.9948 45.1334 15.988 45.1636 15.9879H45.861C45.9138 15.9881 45.9649 16.0067 46.0056 16.0405C46.0463 16.0742 46.074 16.121 46.084 16.1729C46.2758 17.1838 46.4025 18.2059 46.4635 19.233H49.4856C49.5507 19.2341 49.6128 19.2605 49.6589 19.3065C49.7049 19.3525 49.7313 19.4146 49.7323 19.4797Z" fill="#1D1128"/>
<path d="M45.6712 14.5123C44.2456 11.006 41.8912 7.95455 38.8613 5.68605C35.8313 3.41756 32.2404 2.0178 28.4745 1.63726C24.7086 1.25672 20.9103 1.90979 17.4877 3.52627C14.0652 5.14275 11.148 7.6615 9.04974 10.8117C9.0289 10.8427 9.01549 10.8781 9.01055 10.9151C9.00562 10.9522 9.00929 10.9898 9.02128 11.0252C9.03244 11.0609 9.05209 11.0933 9.07852 11.1198C9.10496 11.1462 9.13741 11.1659 9.1731 11.177L9.71395 11.3621C9.74479 11.3711 9.77671 11.3759 9.80883 11.3763C9.85826 11.3756 9.90683 11.3632 9.95054 11.3401C9.99425 11.317 10.0319 11.2839 10.0603 11.2434C11.8676 8.58016 14.2995 6.3999 17.1436 4.89308C19.9876 3.38627 23.1574 2.59874 26.376 2.59929C30.2538 2.59995 34.0455 3.74273 37.2779 5.88497C40.5102 8.02722 43.04 11.074 44.5515 14.6451C44.573 14.6968 44.6091 14.741 44.6556 14.7722C44.702 14.8034 44.7565 14.8203 44.8125 14.8207H45.4577C45.4944 14.8211 45.5307 14.8121 45.5631 14.7947C45.5954 14.7773 45.6228 14.7519 45.6427 14.721C45.6656 14.6919 45.6804 14.6572 45.6854 14.6205C45.6904 14.5838 45.6855 14.5465 45.6712 14.5123ZM44.6796 14.7353C44.6928 14.745 44.7071 14.7529 44.7223 14.759C44.7081 14.7495 44.6939 14.7448 44.6796 14.7353Z" fill="url(#paint0_radial_40_603)"/>
<defs>
<radialGradient id="paint0_radial_40_603" cx="0" cy="0" r="1" gradientUnits="userSpaceOnUse" gradientTransform="translate(45.0649 14.7969) scale(36.0626 36.0626)">
<stop offset="0.01" stop-color="white"/>
<stop offset="0.03" stop-color="#CBFFFF"/>
<stop offset="0.06" stop-color="#96FFFF"/>
<stop offset="0.08" stop-color="#68FFFF"/>
<stop offset="0.11" stop-color="#43FFFF"/>
<stop offset="0.14" stop-color="#25FFFF"/>
<stop offset="0.16" stop-color="#11FFFF"/>
<stop offset="0.19" stop-color="#04FFFF"/>
<stop offset="0.22" stop-color="#00FFFF"/>
<stop offset="1" stop-color="#0000FF" stop-opacity="0"/>
</radialGradient>
</defs>
</svg>
