<svg width="70" height="12" viewBox="0 0 70 12" fill="none" xmlns="http://www.w3.org/2000/svg">
<g clip-path="url(#clip0_40_639)">
<path d="M11.4867 11.3516H8.61461V7.25608H6.75658V11.3516H3.80597V0.785676H6.75004V4.73073H8.60807V0.785676H11.4802L11.4867 11.3516ZM24.6631 11.3974C27.6071 11.3974 30.0082 8.95056 30.0082 5.96724C30.0082 2.93812 27.6071 0.595947 24.6631 0.595947C21.6797 0.595947 20.175 2.76147 19.8086 3.64469C19.8086 2.33622 18.5001 0.772591 16.9823 0.772591H12.0755V11.3516H16.6421C18.5001 11.3516 19.8086 9.76181 19.8086 8.36829C20.2208 9.23188 21.6863 11.3974 24.6631 11.3974ZM16.2757 7.10561C16.701 7.10561 17.0412 7.51778 17.0412 7.98883C17.0412 8.47951 16.701 8.89822 16.2757 8.89822H14.8102V7.10561H16.2757ZM16.2757 3.13439C16.701 3.13439 17.0412 3.54656 17.0412 4.01761C17.0412 4.48866 16.701 4.90083 16.2757 4.90083H14.8102V3.13439H16.2757ZM18.2123 5.96724C18.5525 5.94761 19.1086 5.55507 19.3179 5.31954C19.2394 5.60086 19.2394 6.49717 19.3179 6.78503C19.0824 6.43829 18.5525 6.03266 18.2123 5.96724ZM21.9807 5.96724C21.9807 4.47557 23.191 3.27178 24.6827 3.27832C26.1809 3.2914 27.3716 4.50829 27.352 6.00649C27.3323 7.47852 26.1416 8.66269 24.6631 8.66269C23.1779 8.66924 21.9807 7.46544 21.9807 5.96724ZM24.6631 8.08696C25.808 8.08696 26.7697 7.14486 26.7697 5.96724C26.7697 4.78961 25.808 3.86059 24.6631 3.86059C23.4854 3.86059 22.5433 4.78961 22.5433 5.96724C22.5433 7.14486 23.4789 8.08696 24.6631 8.08696Z" fill="black"/>
<path d="M45.3697 4.52137C45.3108 1.95676 43.4985 0.60249 41.2741 0.60249C40.0573 0.60249 38.9581 1.00812 38.2058 1.80629C37.4599 1.01466 36.3608 0.60249 35.1374 0.60249C32.913 0.60249 31.1008 1.9633 31.0419 4.52791V10.3899C31.0419 10.9264 31.4802 11.3581 32.0101 11.3581H32.9261C33.0177 11.3581 33.0896 11.2862 33.0896 11.1946V4.541C33.1289 3.27832 34.0252 2.611 35.1309 2.611C36.2365 2.611 37.1328 3.27832 37.1721 4.541V10.3833C37.1721 10.9198 37.6104 11.3516 38.1403 11.3516H39.0563C39.1479 11.3516 39.2198 11.2796 39.2198 11.188V4.53446C39.2591 3.27178 40.1554 2.60446 41.2611 2.60446C42.3667 2.60446 43.263 3.27178 43.3023 4.53446V10.3768C43.3023 10.9133 43.7406 11.3451 44.2705 11.3451H45.1865C45.2781 11.3451 45.35 11.2731 45.35 11.1815L45.3697 4.52137C45.3762 4.53446 45.3697 4.52791 45.3697 4.52137ZM66.0436 0.772591H64.4865C64.0547 0.772591 63.6556 0.98849 63.407 1.34832L61.6863 3.89985C61.4574 4.23351 60.9732 4.23351 60.7442 3.89985L59.0236 1.34832C58.7881 0.98849 58.3759 0.772591 57.9441 0.772591H56.387C56.2889 0.772591 56.2365 0.877269 56.2823 0.96232L59.3573 5.52235C59.5797 5.84947 59.5797 6.28127 59.3573 6.60839L56.2823 11.1684C56.2235 11.2469 56.2889 11.3581 56.387 11.3581H57.9441C58.3759 11.3581 58.775 11.1423 59.0236 10.7824L60.7442 8.2309C60.9732 7.89723 61.4574 7.89723 61.6863 8.2309L63.407 10.7824C63.6425 11.1423 64.0547 11.3581 64.4865 11.3581H66.0436C66.1417 11.3581 66.194 11.2535 66.1482 11.1684L63.0733 6.61493C62.8509 6.28781 62.8509 5.85601 63.0733 5.5289L66.1482 0.968863C66.194 0.883812 66.1352 0.772591 66.0436 0.772591ZM55.5758 0.772591H54.6598C54.1953 0.772591 53.8028 1.09971 53.7047 1.53805C52.8869 0.909981 51.8662 0.595947 50.7606 0.595947C48.0717 0.595947 45.8931 2.46707 45.8931 5.99995C45.8931 9.53283 48.0717 11.4039 50.7606 11.4039C51.8597 11.4039 52.8738 11.0899 53.6916 10.4815C53.7374 10.9721 54.1495 11.3647 54.6598 11.3647H55.5758C55.6674 11.3647 55.7393 11.2927 55.7393 11.2011V0.936151C55.7328 0.844557 55.6674 0.772591 55.5758 0.772591ZM50.7606 9.39544C49.1577 9.39544 47.8558 8.22435 47.8558 6.00649C47.8558 3.78862 49.1577 2.61754 50.7606 2.61754C52.3635 2.61754 53.6654 3.78862 53.6654 6.00649C53.6654 8.22435 52.3635 9.39544 50.7606 9.39544Z" fill="url(#paint0_linear_40_639)"/>
</g>
<defs>
<linearGradient id="paint0_linear_40_639" x1="31.0511" y1="5.99779" x2="66.1628" y2="5.99779" gradientUnits="userSpaceOnUse">
<stop stop-color="#991EEB"/>
<stop offset="0.399" stop-color="#5822B4"/>
<stop offset="0.727" stop-color="#5822B4"/>
<stop offset="1" stop-color="#991EEB"/>
</linearGradient>
<clipPath id="clip0_40_639">
<rect width="70" height="10.808" fill="white" transform="translate(0 0.595947)"/>
</clipPath>
</defs>
</svg>
