<svg width="30" height="16" viewBox="0 0 30 16" fill="none" xmlns="http://www.w3.org/2000/svg">
<g clip-path="url(#clip0_40_590)">
<path d="M17.3589 2.03906V4.36561H20.2777V5.19956H17.3589V12.0686C17.3589 12.771 17.4721 13.3084 17.6993 13.6816C17.926 14.0547 18.3171 14.2411 18.8736 14.2411C19.137 14.2411 19.3638 14.2266 19.5539 14.1973C19.7441 14.1683 19.905 14.1313 20.0369 14.0875L20.1466 14.8776C19.7956 15.0384 19.3272 15.1193 18.7421 15.1193C18.2592 15.1193 17.8605 15.0384 17.5461 14.8776C17.2312 14.7168 16.9828 14.4938 16.7998 14.2083C16.6168 13.9228 16.4888 13.5795 16.4156 13.1769C16.342 12.7749 16.3058 12.3396 16.3058 11.8711V5.19956H14.572V4.36561H16.3058V2.43391L17.3589 2.03906ZM21.9677 4.36518L24.3819 10.9053C24.5866 11.4176 24.7695 11.9005 24.9304 12.3536C25.0912 12.8072 25.2448 13.2535 25.3912 13.6922H25.435C25.5809 13.268 25.7384 12.8251 25.9068 12.3643C26.0749 11.9035 26.2617 11.4171 26.4664 10.9049L28.9022 4.36476H29.9996L25.8077 14.8989H24.9078L20.8704 4.36518H21.9677Z" fill="#231F20"/>
<path d="M6.40438 2.11987C7.34002 0.886816 8.64072 0.880859 8.64072 0.880859C8.64072 0.880859 8.83432 2.0403 7.90464 3.15677C6.91241 4.3494 5.78445 4.15411 5.78445 4.15411C5.78445 4.15411 5.57256 3.21634 6.40438 2.11987ZM5.90316 4.96635C6.38438 4.96635 7.27747 4.30473 8.44032 4.30473C10.4418 4.30473 11.2289 5.72882 11.2289 5.72882C11.2289 5.72882 9.68911 6.51596 9.68911 8.42639C9.68911 10.5815 11.6072 11.3239 11.6072 11.3239C11.6072 11.3239 10.2665 15.098 8.45521 15.098C7.62339 15.098 6.97666 14.5372 6.10016 14.5372C5.20707 14.5372 4.32036 15.1188 3.74341 15.1188C2.08955 15.1192 0 11.5388 0 8.66125C0 5.82966 1.76874 4.3443 3.42727 4.3443C4.50587 4.3443 5.3428 4.96635 5.90316 4.96635Z" fill="#231F20"/>
</g>
<defs>
<clipPath id="clip0_40_590">
<rect width="30" height="14.2384" fill="white" transform="translate(0 0.880859)"/>
</clipPath>
</defs>
</svg>
