<svg width="50" height="18" viewBox="0 0 50 18" fill="none" xmlns="http://www.w3.org/2000/svg">
<g clip-path="url(#clip0_40_653)">
<path d="M49.9972 5.89829H46.0162V12.541C46.0162 12.8411 45.9003 13.0959 45.7154 13.305C45.53 13.4902 45.2755 13.5828 44.9755 13.6051H42.6606C42.3366 13.5819 42.0819 13.4894 41.8968 13.305C41.7111 13.0967 41.596 12.8422 41.596 12.541V5.89829H37.6151V12.8883C37.6386 13.8143 37.8008 14.624 38.194 15.2714C38.5868 15.9198 39.0963 16.4057 39.7675 16.7296C40.4621 17.0536 41.2487 17.2397 42.1512 17.2397H46.0169V17.1937C46.8504 17.1937 47.5674 17.008 48.1692 16.6609C48.7476 16.2901 49.2108 15.7817 49.512 15.1324C49.8355 14.4849 49.9977 13.7204 49.9977 12.8872L49.9972 5.89829ZM10.1633 6.31503C9.4688 6.01421 8.70515 5.87525 7.87185 5.89829H5.30262L4.30747 6.01421C4.07597 6.08353 3.96022 6.12997 3.96022 6.12997V0.76001H0.00231934V17.24H3.96022V10.5737C3.98343 10.2958 4.07597 10.0184 4.28425 9.83314C4.49254 9.64791 4.72404 9.53233 5.04807 9.53233H7.36275C7.64035 9.53233 7.89507 9.64892 8.10335 9.83314C8.31163 10.0184 8.40383 10.2958 8.42722 10.5737V17.24H12.3851V10.0648C12.3851 9.06932 12.1768 8.25941 11.7833 7.63439C11.3671 7.03258 10.8346 6.5928 10.1633 6.31503ZM23.634 12.5412C23.6107 12.8415 23.5182 13.0962 23.3331 13.3052C23.1247 13.4906 22.8701 13.5831 22.5693 13.6053H20.2546C19.9538 13.5821 19.6993 13.4895 19.514 13.3052C19.3058 13.0969 19.2132 12.8425 19.19 12.5412V5.89829H15.2321V12.8883C15.2321 13.8143 15.4173 14.624 15.7876 15.2714C16.1579 15.9198 16.6903 16.4057 17.3615 16.7296C18.0559 17.0536 18.8197 17.2397 19.7454 17.2397H23.634V17.1937C24.4673 17.1937 25.1845 17.008 25.7632 16.6609C26.3418 16.2901 26.8048 15.7817 27.1292 15.1324C27.4297 14.4849 27.592 13.7204 27.6151 12.8872V5.89829H23.634V12.5412ZM30.6243 17.24H34.5821V0.76001H30.6243V17.24Z" fill="url(#paint0_linear_40_653)"/>
</g>
<defs>
<linearGradient id="paint0_linear_40_653" x1="24.9999" y1="0.76001" x2="24.9999" y2="17.24" gradientUnits="userSpaceOnUse">
<stop stop-color="#A3CC39"/>
<stop offset="0.698" stop-color="#85BD40"/>
<stop offset="1" stop-color="#65AD45"/>
</linearGradient>
<clipPath id="clip0_40_653">
<rect width="50" height="16.48" fill="white" transform="translate(0 0.76001)"/>
</clipPath>
</defs>
</svg>
