<svg width="60" height="20" viewBox="0 0 60 20" fill="none" xmlns="http://www.w3.org/2000/svg">
<g clip-path="url(#clip0_40_506)">
<path d="M29.7266 19.2279V19.1979C29.7566 19.1605 29.809 19.138 29.854 19.1455C30.0712 19.138 30.2809 19.138 30.4981 19.1455C30.5431 19.1455 30.5955 19.1605 30.6255 19.1979V19.2279H29.7266Z" fill="#D1EFFA"/>
<path d="M30.6254 19.198C30.3258 19.1905 30.0262 19.1905 29.7266 19.198C29.3147 19.1755 28.9027 19.1605 28.4907 19.1306C27.3971 19.0482 26.3111 18.8834 25.2474 18.6362C21.5697 17.7823 18.3414 16.0671 15.5251 13.5728C15.2629 13.3406 15.0157 13.1009 14.7611 12.8612C14.7012 12.8088 14.6487 12.7339 14.6188 12.659C14.5738 12.5541 14.5963 12.4418 14.6712 12.3594C14.7461 12.277 14.8659 12.247 14.9708 12.292C15.0382 12.3219 15.1056 12.3519 15.1656 12.3894C17.8546 14.0522 20.7907 15.2656 23.8692 15.9847C24.9029 16.2244 25.944 16.4116 26.9927 16.5464C28.4982 16.7337 30.0187 16.8011 31.5318 16.7487C32.3482 16.7262 33.1572 16.6513 33.9661 16.5464C35.8537 16.3068 37.7187 15.8798 39.5239 15.2806C40.4751 14.966 41.4039 14.6065 42.3103 14.187C42.4451 14.1121 42.6099 14.0896 42.7597 14.1271C43.0068 14.187 43.1567 14.4417 43.0967 14.6889C43.0892 14.7188 43.0743 14.7563 43.0593 14.7862C42.9994 14.8986 42.917 14.996 42.8121 15.0709C41.9507 15.745 41.0219 16.3367 40.0407 16.8311C38.1906 17.7674 36.2132 18.434 34.1758 18.816C32.9999 19.0257 31.8164 19.1531 30.6254 19.198ZM19.5324 4.01524C19.7196 3.90289 19.9144 3.78305 20.1166 3.67818C20.6409 3.40853 21.2252 3.27371 21.8169 3.30367C22.2438 3.32614 22.6333 3.44598 22.933 3.76057C23.2176 4.05269 23.3224 4.41223 23.3524 4.80172C23.3599 4.88411 23.3599 4.96651 23.3599 5.05639V8.93634C23.3599 9.27341 23.315 9.31835 22.9779 9.31835H22.0641C22.0042 9.31835 21.9442 9.31835 21.8843 9.31086C21.7944 9.30337 21.7195 9.22846 21.7045 9.13858C21.6896 9.05619 21.6896 8.9738 21.6896 8.8914V5.42341C21.6971 5.2811 21.6821 5.14627 21.6446 5.01145C21.5847 4.77925 21.375 4.61446 21.1353 4.59948C20.6934 4.56952 20.2514 4.65941 19.847 4.84666C19.787 4.86164 19.7496 4.92156 19.7571 4.98149V8.92136C19.7571 8.99627 19.7571 9.06368 19.7421 9.13858C19.7421 9.24344 19.6597 9.31835 19.5548 9.31835C19.4425 9.32584 19.3301 9.32584 19.2103 9.32584H18.4163C18.1392 9.32584 18.0793 9.25843 18.0793 8.98129V5.43839C18.0793 5.31106 18.0718 5.17623 18.0418 5.0489C17.9894 4.79423 17.7722 4.61446 17.5175 4.59948C17.0681 4.56952 16.6112 4.65941 16.2067 4.85415C16.1468 4.86913 16.1093 4.93655 16.1243 4.99647V8.98878C16.1243 9.26592 16.0644 9.32584 15.7872 9.32584H14.7836C14.5214 9.32584 14.454 9.25093 14.454 8.99627V3.79803C14.454 3.7381 14.4615 3.67818 14.4764 3.61826C14.5064 3.52838 14.5963 3.47594 14.6862 3.47594H15.6225C15.7573 3.47594 15.8397 3.55834 15.8846 3.68567C15.9221 3.79054 15.9445 3.88791 15.982 4.00026C16.0569 4.00026 16.1018 3.94783 16.1543 3.91787C16.5662 3.6632 17.0007 3.44598 17.4875 3.3561C17.862 3.2812 18.2366 3.2812 18.6111 3.3561C18.9631 3.431 19.2777 3.64073 19.4799 3.94034C19.4949 3.96281 19.5099 3.97779 19.5249 3.99277C19.5174 4.00026 19.5249 4.00026 19.5324 4.01524Z" fill="#00A8E1"/>
<path d="M35.0597 7.74536C35.1046 7.59555 35.1496 7.45324 35.1945 7.30343C35.5391 6.14244 35.8836 4.98894 36.2282 3.82795L36.2731 3.69312C36.3106 3.5583 36.4379 3.47591 36.5727 3.47591H37.7112C37.9959 3.47591 38.0558 3.5583 37.9584 3.82795L37.509 5.0189C37.0071 6.32221 36.5053 7.633 36.0035 8.93631C35.9885 8.98125 35.966 9.02619 35.951 9.07113C35.8986 9.22843 35.7413 9.33329 35.5765 9.31831C35.2469 9.31082 34.9174 9.31082 34.5878 9.31831C34.3556 9.3258 34.2208 9.22094 34.1384 9.01121C33.9511 8.51685 33.7564 8.015 33.5691 7.52065C33.1197 6.34468 32.6628 5.16871 32.2134 3.98524C32.1684 3.89536 32.1385 3.7905 32.116 3.69312C32.0935 3.54332 32.146 3.46842 32.2958 3.46842C32.7227 3.46093 33.1497 3.46842 33.5691 3.46842C33.7489 3.46842 33.8313 3.58826 33.8762 3.74556C33.9586 4.03019 34.041 4.32231 34.1309 4.60694C34.438 5.64808 34.7376 6.69672 35.0447 7.73787C35.0372 7.74536 35.0447 7.74536 35.0597 7.74536Z" fill="#232F3E"/>
<path d="M8.46173 4.29991C8.51416 4.28493 8.5591 4.25497 8.58907 4.21002C8.72389 4.0752 8.86621 3.94786 9.01601 3.82802C9.4055 3.52841 9.89237 3.3786 10.3792 3.41606C10.574 3.42355 10.6414 3.48347 10.6564 3.67072C10.6714 3.92539 10.6639 4.18755 10.6639 4.44222C10.6714 4.54709 10.6639 4.64446 10.6489 4.74932C10.6189 4.88415 10.5665 4.93658 10.4317 4.95156C10.3268 4.95905 10.2294 4.95156 10.1246 4.94407C9.62272 4.89913 9.13585 4.9965 8.66397 5.1538C8.5591 5.19125 8.5591 5.26615 8.5591 5.34854V8.94387C8.5591 9.01128 8.5591 9.0712 8.55161 9.13861C8.54412 9.23599 8.46922 9.31089 8.37185 9.31089C8.31942 9.31838 8.25949 9.31838 8.20706 9.31838H7.23333C7.1809 9.31838 7.12097 9.31838 7.06854 9.31089C6.97117 9.3034 6.89627 9.22101 6.88878 9.12363C6.88129 9.06371 6.88129 9.00379 6.88129 8.94387V3.85049C6.88129 3.50594 6.91874 3.46849 7.26329 3.46849H7.98235C8.1771 3.46849 8.26698 3.5359 8.31942 3.72316C8.37185 3.91041 8.41679 4.09767 8.46173 4.29991ZM43.5012 11.895C43.9955 11.91 44.4824 11.94 44.9618 12.0673C45.0966 12.1048 45.2239 12.1497 45.3513 12.2096C45.5235 12.277 45.6359 12.4418 45.6584 12.6216C45.6883 12.8313 45.6958 13.0485 45.6808 13.2657C45.5835 14.5466 45.1865 15.7825 44.5273 16.8835C44.2876 17.2805 43.9955 17.6401 43.6585 17.9546C43.591 18.0221 43.5087 18.0745 43.4188 18.1045C43.2765 18.1419 43.1866 18.067 43.1791 17.9247C43.1866 17.8498 43.2016 17.7749 43.2315 17.7C43.4937 16.9959 43.7483 16.2993 43.9506 15.5727C44.0704 15.1758 44.1528 14.7713 44.2052 14.3593C44.2202 14.2095 44.2277 14.0597 44.2127 13.9099C44.2052 13.6552 44.0405 13.438 43.7933 13.3631C43.5611 13.2882 43.3214 13.2433 43.0742 13.2283C42.3851 13.1983 41.696 13.2283 41.0144 13.3182L40.1081 13.4305C40.0107 13.438 39.9208 13.4305 39.8684 13.3406C39.816 13.2508 39.8384 13.1609 39.8909 13.071C39.9508 12.9886 40.0257 12.9137 40.1156 12.8613C40.6698 12.4643 41.2915 12.2246 41.9507 12.0673C42.46 11.9624 42.9768 11.91 43.5012 11.895Z" fill="#00A8E1"/>
<path d="M40.3628 6.39728V9.09377C40.3478 9.24357 40.2804 9.31099 40.1306 9.31848C39.7261 9.32597 39.3291 9.32597 38.9246 9.31848C38.7748 9.31848 38.7074 9.24357 38.6924 9.10126C38.6849 9.05632 38.6849 9.00389 38.6849 8.95894V3.77568C38.6924 3.54349 38.7523 3.47607 38.9845 3.47607H40.0631C40.2953 3.47607 40.3628 3.54349 40.3628 3.77568V6.39728Z" fill="#232F3E"/>
<path d="M11.383 6.38206V3.72302C11.3905 3.54325 11.4579 3.47584 11.6376 3.46835C12.0271 3.46086 12.4166 3.46086 12.8061 3.46835C12.9784 3.46835 13.0308 3.52078 13.0458 3.69306C13.0533 3.76047 13.0533 3.82039 13.0533 3.8878V8.87632C13.0533 8.95871 13.0458 9.0411 13.0383 9.12349C13.0308 9.22087 12.9559 9.28828 12.8586 9.29577C12.8136 9.30326 12.7762 9.30326 12.7312 9.30326H11.6901C11.6526 9.30326 11.6227 9.30326 11.5852 9.29577C11.4803 9.28828 11.3905 9.20589 11.383 9.10102C11.3755 9.0411 11.3755 8.98118 11.3755 8.92126C11.383 8.08984 11.383 7.23595 11.383 6.38206ZM12.2518 0.786836C12.3717 0.779345 12.4915 0.801816 12.6039 0.839267C13.0084 0.974092 13.2181 1.32613 13.1806 1.78304C13.1507 2.17253 12.8586 2.48712 12.4691 2.54705C12.3043 2.57701 12.132 2.57701 11.9672 2.54705C11.5403 2.46465 11.2257 2.15006 11.2556 1.61076C11.3006 1.07896 11.6526 0.786836 12.2518 0.786836Z" fill="#00A8E1"/>
<path d="M39.5314 0.787021C39.6812 0.77204 39.831 0.802001 39.9733 0.861923C40.2654 0.974277 40.4676 1.24393 40.4826 1.55852C40.5426 2.24013 40.0856 2.58468 39.4789 2.5697C39.3965 2.5697 39.3142 2.55472 39.2318 2.53974C38.7674 2.42739 38.5277 2.06786 38.5726 1.55103C38.6101 1.13906 38.9321 0.831962 39.3741 0.794511C39.4265 0.787021 39.4789 0.77953 39.5314 0.787021Z" fill="#232F3E"/>
<path d="M5.77274 5.76804C5.74278 5.37854 5.63791 4.99654 5.48062 4.6445C5.17352 4.00034 4.70163 3.52845 3.98257 3.36366C3.15864 3.1839 2.4171 3.36366 1.74298 3.86551C1.69804 3.91045 1.64561 3.9479 1.58568 3.97786C1.5707 3.97037 1.55572 3.96288 1.55572 3.95539C1.53325 3.88049 1.51827 3.80559 1.4958 3.73069C1.43588 3.54343 1.36098 3.47602 1.15874 3.47602C0.934031 3.47602 0.701833 3.48351 0.477126 3.47602C0.30485 3.46853 0.147554 3.491 0.02771 3.62582C0.02771 6.24741 0.02771 8.87649 0.0352002 11.4906C0.132574 11.6479 0.282379 11.6779 0.454655 11.6704C0.724304 11.6629 0.993953 11.6704 1.2636 11.6704C1.73549 11.6704 1.73549 11.6704 1.73549 11.206V9.07124C1.73549 9.01881 1.71302 8.95889 1.76545 8.91395C2.13996 9.20607 2.59687 9.38583 3.06876 9.43077C3.7279 9.49819 4.32712 9.3334 4.82897 8.88398C5.19599 8.54692 5.46564 8.11249 5.60795 7.63311C5.81019 7.01891 5.82517 6.39722 5.77274 5.76804ZM3.98257 7.31852C3.93014 7.55072 3.81029 7.76045 3.63802 7.91774C3.44327 8.08253 3.20358 8.1799 2.94891 8.1799C2.56691 8.20237 2.19239 8.11998 1.85533 7.94021C1.77294 7.90276 1.72051 7.82037 1.728 7.73048V6.37475C1.728 5.92533 1.73549 5.47592 1.728 5.0265C1.72051 4.92164 1.78043 4.83175 1.8778 4.7943C2.28977 4.59956 2.71671 4.50967 3.16613 4.59956C3.48072 4.6445 3.75037 4.84673 3.8777 5.13885C3.99006 5.37854 4.05747 5.6407 4.07245 5.90286C4.11739 6.38224 4.11739 6.86161 3.98257 7.31852Z" fill="#00A8E1"/>
<path d="M59.9573 6.93643C59.9573 6.92894 59.9573 6.92894 59.9573 6.93643V6.93643ZM59.9648 5.93273V5.96269C59.9348 5.93273 59.9198 5.88779 59.9348 5.85034V5.79042C59.9348 5.79042 59.9348 5.78293 59.9423 5.78293H59.9348V5.70802H59.9498C59.9498 5.70053 59.9423 5.70053 59.9423 5.69304C59.9273 5.55073 59.8974 5.40841 59.8599 5.27359C59.5828 4.28487 58.9611 3.63322 57.9499 3.37855C57.478 3.2662 56.9987 3.25122 56.5193 3.32612C55.5081 3.47593 54.7815 4.01523 54.4295 4.97398C54.0849 5.88779 54.0924 6.89149 54.437 7.8053C54.7366 8.63672 55.3358 9.16103 56.1972 9.37825C56.6541 9.49061 57.1335 9.52057 57.6054 9.45315C59.1783 9.2659 59.83 8.07495 59.9348 7.04129H59.9273V6.93643C59.9199 6.89148 59.9124 6.85403 59.9573 6.82407V6.83905C59.9573 6.83156 59.9648 6.81658 59.9723 6.80909V5.94771C59.9723 5.94022 59.9648 5.94022 59.9648 5.93273ZM58.1671 7.35588C58.1222 7.51318 58.0548 7.65549 57.9574 7.79032C57.7926 8.02251 57.5305 8.17232 57.2458 8.19479C57.1035 8.20977 56.9612 8.20977 56.8189 8.17981C56.5043 8.11989 56.2421 7.91016 56.1148 7.61804C56.0024 7.38584 55.935 7.13117 55.9126 6.8765C55.8751 6.43458 55.8676 5.99265 55.9725 5.55822C56.0099 5.38594 56.0848 5.21367 56.1747 5.06386C56.3395 4.79421 56.6241 4.62194 56.9387 4.59947C57.081 4.58449 57.2234 4.58449 57.3657 4.61445C57.6653 4.67437 57.9125 4.86911 58.0473 5.14625C58.1746 5.40841 58.2495 5.70053 58.2645 5.99265C58.272 6.12748 58.2795 6.2623 58.272 6.39713C58.2945 6.7267 58.257 7.04878 58.1671 7.35588ZM46.8344 0.839355H45.7932C45.5086 0.839355 45.4562 0.891787 45.4562 1.17642V3.60326C45.4562 3.65569 45.4786 3.70812 45.4412 3.76056C45.3738 3.75307 45.3363 3.70812 45.2839 3.67816C44.5049 3.22126 43.6885 3.13886 42.8645 3.52087C42.2878 3.79052 41.9282 4.27738 41.696 4.85413C41.4713 5.40841 41.4189 5.99265 41.4339 6.58438C41.4339 7.13866 41.5612 7.68545 41.8084 8.17981C42.093 8.7266 42.505 9.14605 43.1042 9.32582C43.9207 9.58049 44.6847 9.45315 45.3813 8.93633C45.4337 8.90636 45.4636 8.85393 45.5311 8.83895C45.5685 8.92134 45.5985 9.01123 45.6135 9.10111C45.6434 9.22096 45.7483 9.30335 45.8756 9.30335H46.0554C46.325 9.30335 46.5872 9.31084 46.8493 9.30335C47.0591 9.30335 47.119 9.23594 47.1265 9.01872V1.12399C47.119 0.891787 47.0591 0.839355 46.8344 0.839355ZM45.4636 6.35219V7.71541C45.4786 7.8053 45.4262 7.88769 45.3438 7.92514C44.9843 8.12738 44.5723 8.20977 44.1678 8.14985C43.8233 8.1124 43.5237 7.90267 43.3664 7.59557C43.2465 7.35588 43.1791 7.10121 43.1566 6.83905C43.0967 6.36717 43.1342 5.88779 43.2465 5.43088C43.284 5.30355 43.3289 5.18371 43.3963 5.06386C43.5536 4.77174 43.8532 4.58449 44.1828 4.56201C44.5798 4.52456 44.9768 4.59947 45.3363 4.76425C45.4262 4.79421 45.4786 4.8841 45.4711 4.98147C45.4562 5.44587 45.4636 5.89528 45.4636 6.35219Z" fill="#232F3E"/>
<path d="M26.0938 6.86894C26.6556 6.9738 27.2323 6.98129 27.7941 6.89141C28.1237 6.84647 28.4383 6.7491 28.7304 6.5918C29.0675 6.39705 29.3146 6.1274 29.4195 5.75289C29.6817 4.80912 29.2772 3.85786 28.296 3.50581C27.8166 3.34852 27.3072 3.29609 26.8054 3.3635C25.6219 3.49832 24.8504 4.14998 24.4984 5.28101C24.2512 6.0525 24.2812 6.83898 24.4834 7.61797C24.7456 8.61417 25.4047 9.2059 26.4009 9.41563C26.9702 9.54296 27.5469 9.52049 28.1162 9.43061C28.4158 9.37818 28.7154 9.30327 29 9.19092C29.1723 9.12351 29.2622 9.01864 29.2547 8.8239C29.2472 8.64413 29.2547 8.45687 29.2547 8.26962C29.2547 8.04491 29.1648 7.9775 28.9476 8.02993C28.7304 8.08236 28.5207 8.1273 28.3034 8.17224C27.8391 8.26962 27.3597 8.26962 26.8953 8.18723C26.2586 8.05989 25.8466 7.5131 25.8841 6.83898C25.9515 6.84647 26.0264 6.85396 26.0938 6.86894ZM25.9066 5.72293C25.929 5.54316 25.9815 5.37089 26.0489 5.2061C26.2736 4.65931 26.7455 4.47206 27.2248 4.50202C27.3597 4.50951 27.4945 4.53947 27.6218 4.5919C27.8166 4.67429 27.9439 4.85406 27.9664 5.06379C27.9889 5.19112 27.9814 5.32595 27.9439 5.45328C27.854 5.72293 27.6368 5.83528 27.3747 5.88772C27.2174 5.92517 27.0526 5.94015 26.8878 5.92517C26.5957 5.92517 26.2961 5.9027 26.0039 5.85776C25.8916 5.84277 25.8916 5.84277 25.9066 5.72293Z" fill="#00A8E1"/>
<path d="M51.3585 6.94407C51.7929 6.91411 52.2274 6.83171 52.6169 6.62199C53.0138 6.42724 53.291 6.06022 53.3734 5.62578C53.4258 5.35613 53.4258 5.0715 53.3659 4.80185C53.2086 4.12773 52.7816 3.70827 52.1375 3.49106C51.7779 3.3787 51.3959 3.33376 51.0214 3.34874C49.7631 3.3787 48.8043 4.01537 48.4148 5.27374C48.1527 6.10516 48.1901 6.95156 48.4448 7.78298C48.7069 8.63687 49.3062 9.15369 50.16 9.38589C50.5271 9.47577 50.9091 9.51323 51.2836 9.49825C51.8304 9.49076 52.3772 9.38589 52.894 9.19114C53.1112 9.10875 53.1636 9.03385 53.1636 8.80165V8.26235C53.1562 8.04513 53.0663 7.97023 52.8491 8.02266C52.6843 8.06761 52.527 8.10506 52.3622 8.14251C51.8603 8.26235 51.336 8.28482 50.8267 8.19494C50.3173 8.09757 49.9728 7.80545 49.838 7.29611C49.8005 7.1463 49.7706 6.9965 49.7556 6.8392C49.793 6.8392 49.8305 6.8392 49.8604 6.85418C50.3548 6.94407 50.8566 6.98152 51.3585 6.94407ZM49.793 5.74563C49.8455 5.45351 49.9129 5.16888 50.0926 4.92919C50.3698 4.56216 50.7518 4.4573 51.1862 4.50224C51.2237 4.50224 51.2536 4.51722 51.2911 4.51722C51.8154 4.59962 51.9427 5.01907 51.8454 5.42354C51.7705 5.72315 51.5233 5.83551 51.2461 5.88794C51.0963 5.9179 50.939 5.93288 50.7817 5.92539C50.4746 5.9179 50.175 5.89543 49.8754 5.85049C49.808 5.843 49.778 5.81304 49.793 5.74563Z" fill="#232F3E"/>
</g>
<defs>
<clipPath id="clip0_40_506">
<rect width="60" height="18.456" fill="white" transform="translate(0 0.771973)"/>
</clipPath>
</defs>
</svg>
