<svg width="170" height="170" viewBox="0 0 170 170" fill="none" xmlns="http://www.w3.org/2000/svg">
<g id="Favicon">
<g clip-path="url(#clip0_318_7308)">
<rect width="170" height="170" rx="30" fill="url(#paint0_linear_318_7308)"/>
<path id="Star 6" d="M84.2313 25.3258C85.3788 22.2247 89.7649 22.2247 90.9124 25.3258C95.2416 37.0254 104.466 46.2498 116.166 50.579C119.267 51.7265 119.267 56.1126 116.166 57.2601C104.466 61.5893 95.2416 70.8137 90.9124 82.5133C89.7649 85.6143 85.3788 85.6143 84.2313 82.5133C79.9021 70.8137 70.6777 61.5893 58.9781 57.2601C55.8771 56.1126 55.8771 51.7265 58.9781 50.579C70.6777 46.2498 79.9021 37.0254 84.2313 25.3258Z" fill="white"/>
<path id="Star 6_2" d="M31.9555 86.0018C32.5293 84.4512 34.7223 84.4512 35.2961 86.0018C37.4607 91.8516 42.0729 96.4637 47.9226 98.6284C49.4732 99.2021 49.4732 101.395 47.9226 101.969C42.0729 104.134 37.4607 108.746 35.2961 114.595C34.7223 116.146 32.5293 116.146 31.9555 114.595C29.7909 108.746 25.1787 104.134 19.3289 101.969C17.7784 101.395 17.7784 99.2021 19.3289 98.6284C25.1787 96.4637 29.7909 91.8516 31.9555 86.0018Z" fill="white"/>
<path id="Star 6_3" d="M128.744 73.9561C129.154 72.8467 130.723 72.8467 131.134 73.9561C132.683 78.1418 135.983 81.4419 140.169 82.9908C141.278 83.4013 141.278 84.9705 140.169 85.381C135.983 86.9299 132.683 90.23 131.134 94.4157C130.723 95.5252 129.154 95.5252 128.744 94.4157C127.195 90.23 123.895 86.9299 119.709 85.381C118.6 84.9705 118.6 83.4013 119.709 82.9908C123.895 81.4419 127.195 78.1418 128.744 73.9561Z" fill="white"/>
<path id="Vector" d="M55.961 129.816V263.927C55.961 271.946 62.4612 278.446 70.4797 278.446H104.778C112.796 278.446 119.297 271.946 119.297 263.927V129.816C119.297 121.798 112.796 115.298 104.778 115.298H70.4797C62.4612 115.298 55.961 121.798 55.961 129.816Z" fill="white" stroke="url(#paint1_linear_318_7308)" stroke-width="1.38274"/>
</g>
</g>
<defs>
<linearGradient id="paint0_linear_318_7308" x1="170" y1="85" x2="0" y2="85" gradientUnits="userSpaceOnUse">
<stop stop-color="#5822B4"/>
<stop offset="1" stop-color="#386BF6"/>
</linearGradient>
<linearGradient id="paint1_linear_318_7308" x1="118.605" y1="196.872" x2="56.6523" y2="196.872" gradientUnits="userSpaceOnUse">
<stop offset="0.1" stop-color="white"/>
<stop offset="0.325" stop-color="white" stop-opacity="0.75"/>
<stop offset="0.4375" stop-color="white" stop-opacity="0.625"/>
<stop offset="0.55" stop-color="white" stop-opacity="0.5"/>
<stop offset="1" stop-color="white" stop-opacity="0"/>
</linearGradient>
<clipPath id="clip0_318_7308">
<rect width="170" height="170" rx="30" fill="white"/>
</clipPath>
</defs>
</svg>
